<svg xmlns="http://www.w3.org/2000/svg" viewBox="0 0 800 300" width="100%" height="100%">
  <rect width="100%" height="100%" fill="#0F172A" rx="16"/>
  
  <defs>
    <linearGradient id="torreEsq" x1="0%" y1="100%" x2="100%" y2="0%">
      <stop offset="0%" stop-color="#4F46E5" />
      <stop offset="100%" stop-color="#6366F1" />
    </linearGradient>
    <linearGradient id="torreDir" x1="0%" y1="100%" x2="100%" y2="0%">
      <stop offset="0%" stop-color="#0891B2" />
      <stop offset="100%" stop-color="#06B6D4" />
    </linearGradient>
  </defs>

  <g transform="translate(60, 65)">
    <path d="M 40 140 L 40 40 L 90 0 L 140 40 L 140 100 L 115 100 L 115 50 L 90 30 L 65 50 L 65 140 Z" 
          fill="url(#torreEsq)" />
          
    <path d="M 130 140 L 130 110 L 155 110 L 155 50 L 180 30 L 205 50 L 205 140 L 105 140 L 105 115 L 180 115 L 180 65 L 155 65 L 105 105 L 105 40 L 155 0 L 230 40 L 230 140 Z" 
          fill="url(#torreDir)" opacity="0.9"/>
          
    <rect x="40" y="150" width="190" height="8" fill="#334155" rx="4"/>
  </g>

  <g transform="translate(340, 165)">
    <text x="0" y="0" font-family="Segoe UI, Roboto, sans-serif" font-weight="300" font-size="76" fill="#94A3B8" letter-spacing="2">sind</text>
    <text x="145" y="0" font-family="Segoe UI, Roboto, sans-serif" font-weight="800" font-size="76" fill="#06B6D4" letter-spacing="4">CON</text>
  </g>
</svg>
